<?xml version="1.0" encoding="UTF-8" standalone="no"?>
<svg
   width="100"
   zoomAndPan="magnify"
   viewBox="0 0 75.119995 83.04"
   height="100"
   preserveAspectRatio="xMidYMid meet"
   version="1.2"
   id="svg2"
   sodipodi:docname="back.svg"
   inkscape:version="1.4 (e7c3feb1, 2024-10-09)"
   xmlns:inkscape="http://www.inkscape.org/namespaces/inkscape"
   xmlns:sodipodi="http://sodipodi.sourceforge.net/DTD/sodipodi-0.dtd"
   xmlns="http://www.w3.org/2000/svg"
   xmlns:svg="http://www.w3.org/2000/svg">
  <sodipodi:namedview
     id="namedview2"
     pagecolor="#ffffff"
     bordercolor="#111111"
     borderopacity="1"
     inkscape:showpageshadow="0"
     inkscape:pageopacity="0"
     inkscape:pagecheckerboard="1"
     inkscape:deskcolor="#d1d1d1"
     inkscape:zoom="6.2373467"
     inkscape:cx="46.494129"
     inkscape:cy="50.261756"
     inkscape:window-width="1512"
     inkscape:window-height="888"
     inkscape:window-x="0"
     inkscape:window-y="38"
     inkscape:window-maximized="0"
     inkscape:current-layer="svg2" />
  <defs
     id="defs1">
    <clipPath
       id="cf1bc3d31f">
      <path
         d="M 7.414062 16.476562 L 66.71875 16.476562 L 66.71875 57.992188 L 7.414062 57.992188 Z M 7.414062 16.476562 "
         id="path1" />
    </clipPath>
  </defs>
  <g
     id="134c0b5d55"
     transform="matrix(1.1751143,0,0,1.1227446,-5.9586661,-0.46155219)">
    <g
       clip-rule="nonzero"
       clip-path="url(#cf1bc3d31f)"
       id="g2">
      <path
         style="fill:#000000;fill-opacity:1;fill-rule:evenodd;stroke:none"
         d="m 12.5625,28.828125 c 3.1875,-2.929687 6.398438,-6.101563 9.609375,-9.628906 0.53125,-0.582031 0.5,-1.496094 -0.07031,-2.039063 -0.570312,-0.539062 -1.460937,-0.507812 -1.992187,0.07422 -4.082031,4.488281 -8.167969,8.390625 -12.203125,11.941406 -0.296875,0.265625 -0.488281,0.65625 -0.488281,1.09375 0,0.378907 0.144531,0.726563 0.382812,0.984375 3.917969,4.273438 8.34375,8.429688 13.25,13.277344 0.5625,0.550781 1.453125,0.535156 1.992188,-0.03516 0.542969,-0.574219 0.523437,-1.484375 -0.03125,-2.039063 -3.9375,-3.890625 -7.570313,-7.332031 -10.871094,-10.75 H 59.59375 c 2.464844,0 4.378906,2.359375 4.378906,5.175781 0,0 0,13.222657 0,13.222657 0,2.8125 -1.914062,5.171875 -4.378906,5.171875 h -15.25 c -0.777344,0 -1.40625,0.648437 -1.40625,1.441406 0,0.796875 0.628906,1.441406 1.40625,1.441406 h 15.25 c 3.929688,0 7.195312,-3.566406 7.195312,-8.054687 V 36.882812 c 0,-4.492187 -3.265624,-8.054687 -7.195312,-8.054687 z m -3.738281,2.878906 z m 0,0"
         id="path2" />
    </g>
  </g>
</svg>
