<?xml version="1.0" encoding="UTF-8" standalone="no"?>
<svg
   width="100"
   zoomAndPan="magnify"
   viewBox="0 0 75.119995 83.04"
   height="100"
   preserveAspectRatio="xMidYMid"
   version="1.2"
   id="svg2"
   xmlns="http://www.w3.org/2000/svg"
   xmlns:svg="http://www.w3.org/2000/svg">
  <defs
     id="defs1">
    <clipPath
       id="370505b242">
      <path
         d="M 14.800781,7.417969 H 59.277344 V 66.726562 H 14.800781 Z m 0,0"
         id="path1" />
    </clipPath>
  </defs>
  <g
     id="c6316a2794"
     transform="matrix(1.3562221,0,0,1.2059839,-12.549401,-3.1768314)"
     style="stroke-width:0.999935;stroke-dasharray:none">
    <g
       clip-rule="nonzero"
       clip-path="url(#370505b242)"
       id="g2"
       style="stroke-width:0.999935;stroke-dasharray:none">
      <path
         style="display:inline;fill-opacity:1;fill-rule:evenodd;stroke:none;stroke-width:0.999935;stroke-dasharray:none"
         d="m 55.050781,24.441406 h 2.132813 c -0.65625,5.234375 -3.476563,27.820313 -4.628906,37.0625 -0.222657,1.777344 -1.730469,3.113282 -3.519532,3.113282 -6.0625,0 -17.519531,0 -23.578125,0 -1.789062,0 -3.296875,-1.335938 -3.519531,-3.113282 0,0 -4.628906,-37.0625 -4.628906,-37.0625 0,0 33.097656,0 33.097656,0 0.539062,0 0.976562,-0.4375 0.976562,-0.972656 0,-0.539062 -0.4375,-0.976562 -0.976562,-0.976562 H 16.207031 c -0.28125,0 -0.546875,0.121093 -0.730469,0.332031 -0.1875,0.207031 -0.269531,0.488281 -0.238281,0.765625 0,0 3.457031,27.671875 4.765625,38.15625 0.34375,2.753906 2.679688,4.820312 5.453125,4.820312 6.058594,0 17.515625,0 23.578125,0 2.769532,0 5.105469,-2.066406 5.449219,-4.820312 C 55.792969,51.261719 59.25,23.589844 59.25,23.589844 59.285156,23.3125 59.199219,23.03125 59.011719,22.824219 58.828125,22.613281 58.5625,22.492188 58.285156,22.492188 h -3.234375 c -0.539062,0 -0.972656,0.4375 -0.972656,0.976562 0,0.535156 0.433594,0.972656 0.972656,0.972656 z m -18.78125,9.554688 v 21.0625 c 0,0.539062 0.4375,0.976562 0.976563,0.976562 0.535156,0 0.972656,-0.4375 0.972656,-0.976562 v -21.0625 c 0,-0.535156 -0.4375,-0.972656 -0.972656,-0.972656 -0.539063,0 -0.976563,0.4375 -0.976563,0.972656 z m -11.234375,0.117187 1.730469,20.992188 c 0.04297,0.535156 0.515625,0.933593 1.050781,0.890625 0.535156,-0.04687 0.933594,-0.515625 0.890625,-1.050782 L 26.976562,33.953125 c -0.04297,-0.535156 -0.515624,-0.933594 -1.050781,-0.890625 -0.535156,0.04297 -0.933593,0.515625 -0.890625,1.050781 z m 22.191406,-0.160156 -1.730468,20.992187 c -0.04297,0.535157 0.355468,1.003907 0.890625,1.050782 0.535156,0.04297 1.007812,-0.355469 1.050781,-0.890625 L 49.164062,34.113281 C 49.210942,33.578125 48.8125,33.105469 48.277344,33.0625 47.738281,33.01953 47.269531,33.417969 47.226562,33.953125 Z M 29.921875,15.847656 15.617188,19.683594 c -0.515626,0.136718 -0.824219,0.671875 -0.6875,1.195312 0.140624,0.515625 0.675781,0.824219 1.195312,0.6875 L 56.765625,10.664062 C 57.285156,10.523438 57.59375,9.988281 57.457031,9.472656 57.316406,8.949219 56.78125,8.640625 56.261719,8.78125 L 41.960938,12.617188 40.851562,8.472656 C 40.714844,7.953125 40.179688,7.644531 39.660156,7.785156 L 29.5,10.507812 c -0.519531,0.140626 -0.828125,0.675782 -0.6875,1.195313 z M 40.082031,13.121094 39.222656,9.917969 c 0,0 -8.277344,2.222656 -8.277344,2.222656 l 0.855469,3.203125 z m 0,0"
         id="path2" />
    </g>
  </g>
</svg>
