<?xml version="1.0" encoding="UTF-8" standalone="no"?>
<svg
   width="100"
   zoomAndPan="magnify"
   viewBox="0 0 75.119995 83.04"
   height="100"
   preserveAspectRatio="xMidYMid meet"
   version="1.2"
   id="svg4"
   sodipodi:docname="close.svg"
   inkscape:version="1.4 (e7c3feb1, 2024-10-09)"
   xmlns:inkscape="http://www.inkscape.org/namespaces/inkscape"
   xmlns:sodipodi="http://sodipodi.sourceforge.net/DTD/sodipodi-0.dtd"
   xmlns="http://www.w3.org/2000/svg"
   xmlns:svg="http://www.w3.org/2000/svg">
  <sodipodi:namedview
     id="namedview4"
     pagecolor="#ffffff"
     bordercolor="#111111"
     borderopacity="1"
     inkscape:showpageshadow="0"
     inkscape:pageopacity="0"
     inkscape:pagecheckerboard="1"
     inkscape:deskcolor="#d1d1d1"
     inkscape:zoom="6.2433049"
     inkscape:cx="56.380395"
     inkscape:cy="50.053618"
     inkscape:window-width="1512"
     inkscape:window-height="886"
     inkscape:window-x="0"
     inkscape:window-y="38"
     inkscape:window-maximized="0"
     inkscape:current-layer="e594e26856" />
  <defs
     id="defs1">
    <clipPath
       id="c0498b63cd">
      <path
         d="M 7.414062 7.417969 L 66.71875 7.417969 L 66.71875 66.726562 L 7.414062 66.726562 Z M 7.414062 7.417969 "
         id="path1" />
    </clipPath>
  </defs>
  <g
     id="e594e26856">
    <g
       clip-rule="nonzero"
       clip-path="url(#c0498b63cd)"
       id="g2"
       transform="matrix(1.2601462,0,0,1.262527,-9.1097132,-5.2757152)">
      <path
         style="fill:none;stroke:#000000;stroke-width:10.742;stroke-linecap:round;stroke-linejoin:round;stroke-miterlimit:10;stroke-opacity:1"
         d="m 288.79521,147.07175 c 0,4.65072 -0.23253,9.28207 -0.67823,13.89404 -0.46507,4.63135 -1.1433,9.20456 -2.05407,13.7584 -0.91076,4.55384 -2.03469,9.04954 -3.37177,13.48711 -1.35647,4.43756 -2.90671,8.817 -4.68949,13.09954 -1.78277,4.28255 -3.75933,8.4682 -5.94905,12.57634 -2.18972,4.08876 -4.57321,8.06126 -7.15049,11.91749 -2.57728,3.85622 -5.32896,7.59618 -8.27442,11.18112 -2.94546,3.58493 -6.06532,7.01484 -9.34021,10.28973 -3.29426,3.29426 -6.72417,6.39475 -10.30911,9.34021 -3.58493,2.94546 -7.30551,5.71652 -11.16174,8.29379 -3.85623,2.57728 -7.8481,4.96078 -11.93686,7.1505 -4.08877,2.18971 -8.27442,4.16627 -12.57634,5.94905 -4.28255,1.7634 -8.6426,3.33302 -13.08017,4.6701 -4.45695,1.35647 -8.95265,2.48039 -13.50649,3.39116 -4.53445,0.91077 -9.12705,1.589 -13.73902,2.03469 -4.63134,0.46507 -9.26269,0.67823 -13.89404,0.67823 -4.65073,0 -9.28208,-0.21316 -13.89405,-0.67823 -4.61197,-0.44569 -9.20456,-1.12392 -13.75839,-2.03469 -4.55384,-0.91077 -9.04954,-2.03469 -13.48711,-3.39116 -4.43757,-1.33708 -8.797624,-2.9067 -13.099545,-4.6701 -4.282544,-1.78278 -8.468198,-3.75934 -12.556961,-5.94905 -4.108142,-2.18972 -8.080637,-4.57322 -11.936864,-7.1505 -3.856228,-2.57727 -7.576809,-5.34833 -11.161743,-8.29379 -3.604313,-2.94546 -7.034224,-6.04595 -10.30911,-9.34021 -3.294265,-3.27489 -6.394749,-6.7048 -9.340209,-10.28973 -2.94546,-3.58494 -5.716518,-7.3249 -8.293795,-11.18112 -2.577278,-3.85623 -4.960775,-7.82873 -7.150492,-11.91749 -2.189717,-4.10814 -4.166275,-8.29379 -5.929676,-12.57634 -1.782778,-4.28254 -3.352398,-8.66198 -4.689482,-13.09954 -1.356462,-4.43757 -2.480387,-8.93327 -3.391155,-13.48711 -0.891389,-4.55384 -1.56962,-9.12705 -2.034692,-13.7584 -0.445695,-4.61197 -0.678231,-9.24332 -0.678231,-13.89404 0,-4.63135 0.232536,-9.2627 0.678231,-13.87467 0.465072,-4.63135 1.143303,-9.20456 2.034692,-13.7584 0.910768,-4.55383 2.034693,-9.04954 3.391155,-13.4871 1.337084,-4.45695 2.906704,-8.817006 4.689482,-13.099549 1.763401,-4.282544 3.739959,-8.487576 5.929676,-12.576339 2.189717,-4.088764 4.573214,-8.061259 7.150492,-11.917486 2.577277,-3.875606 5.348335,-7.596187 8.293795,-11.181121 2.94546,-3.584935 6.045944,-7.014846 9.340209,-10.30911 3.274886,-3.274887 6.704797,-6.394749 10.30911,-9.340209 3.584934,-2.926082 7.305515,-5.69714 11.161743,-8.274417 3.856227,-2.577278 7.828722,-4.960775 11.936864,-7.150492 4.088763,-2.189717 8.274417,-4.166275 12.556961,-5.949054 4.301921,-1.7634 8.661975,-3.33302 13.099545,-4.689482 4.43757,-1.337084 8.93327,-2.461009 13.48711,-3.371777 4.55383,-0.910767 9.14642,-1.588998 13.75839,-2.034692 4.61197,-0.465073 9.24332,-0.678231 13.89405,-0.678231 4.63135,0 9.2627,0.213158 13.89404,0.678231 4.61197,0.445694 9.20457,1.123925 13.73902,2.034692 4.55384,0.910768 9.04954,2.034693 13.50649,3.371777 4.43757,1.356462 8.79762,2.926082 13.08017,4.689482 4.30192,1.782779 8.48757,3.759337 12.57634,5.949054 4.08876,2.189717 8.08063,4.573214 11.93686,7.150492 3.85623,2.577277 7.57681,5.348335 11.16174,8.274417 3.58494,2.94546 7.01485,6.065322 10.30911,9.340209 3.27489,3.294264 6.39475,6.724175 9.34021,10.30911 2.94546,3.584934 5.69714,7.305515 8.27442,11.181121 2.57728,3.856227 4.96077,7.828722 7.15049,11.917486 2.18972,4.088763 4.16628,8.293795 5.94905,12.576339 1.78278,4.282543 3.33302,8.642599 4.68949,13.099549 1.33708,4.43756 2.46101,8.93327 3.37177,13.4871 0.91077,4.55384 1.589,9.12705 2.05407,13.7584 0.4457,4.61197 0.67823,9.24332 0.67823,13.87467 z m 0,0"
         transform="matrix(0.201581,0,0,0.201581,7.413157,7.419475)"
         id="path2" />
    </g>
    <path
       style="fill:none;stroke:#000000;stroke-width:2.73128;stroke-linecap:round;stroke-linejoin:round;stroke-miterlimit:10;stroke-opacity:1"
       d="M 53.616907,25.47368 21.57185,57.574349"
       id="path3" />
    <path
       style="fill:none;stroke:#000000;stroke-width:2.73128;stroke-linecap:round;stroke-linejoin:round;stroke-miterlimit:10;stroke-opacity:1"
       d="M 53.616907,57.574349 21.57185,25.47368"
       id="path4" />
  </g>
</svg>
