<svg xmlns="http://www.w3.org/2000/svg" xmlns:xlink="http://www.w3.org/1999/xlink" width="100" zoomAndPan="magnify" viewBox="0 0 75.119995 83.04" height="100" preserveAspectRatio="xMidYMid meet" version="1.2"><defs><clipPath id="b9649a6ed1"><path d="M 14.828125 7.417969 L 59.304688 7.417969 L 59.304688 66.726562 L 14.828125 66.726562 Z M 14.828125 7.417969 "/></clipPath></defs><g id="321c5a24c4"><g clip-rule="nonzero" clip-path="url(#b9649a6ed1)"><path style=" stroke:none;fill-rule:nonzero;fill:#000000;fill-opacity:1;" d="M 56.199219 14.320312 L 48.226562 14.320312 L 48.226562 10.660156 C 48.226562 10.238281 48.148438 9.835938 47.984375 9.445312 C 47.824219 9.058594 47.59375 8.714844 47.296875 8.417969 C 47 8.121094 46.660156 7.894531 46.269531 7.730469 C 45.882812 7.570312 45.476562 7.492188 45.058594 7.488281 L 29.179688 7.488281 C 28.757812 7.492188 28.355469 7.570312 27.96875 7.730469 C 27.578125 7.894531 27.234375 8.121094 26.9375 8.417969 C 26.640625 8.714844 26.414062 9.058594 26.253906 9.445312 C 26.089844 9.835938 26.011719 10.238281 26.011719 10.660156 L 26.011719 14.320312 L 18.039062 14.320312 C 17.617188 14.320312 17.214844 14.398438 16.824219 14.5625 C 16.4375 14.722656 16.09375 14.953125 15.796875 15.25 C 15.5 15.546875 15.273438 15.886719 15.109375 16.277344 C 14.949219 16.664062 14.867188 17.070312 14.867188 17.488281 L 14.867188 19.8125 C 14.875 20.050781 14.90625 20.289062 14.964844 20.519531 C 15.023438 20.75 15.105469 20.972656 15.210938 21.1875 C 15.316406 21.402344 15.441406 21.605469 15.59375 21.789062 C 15.742188 21.976562 15.910156 22.144531 16.09375 22.296875 C 16.28125 22.445312 16.480469 22.574219 16.691406 22.683594 C 16.90625 22.789062 17.128906 22.875 17.359375 22.933594 C 17.59375 22.992188 17.828125 23.027344 18.066406 23.035156 C 18.304688 23.042969 18.542969 23.023438 18.777344 22.980469 L 20.648438 61.625 C 20.664062 61.960938 20.710938 62.292969 20.789062 62.621094 C 20.871094 62.949219 20.980469 63.265625 21.117188 63.570312 C 21.257812 63.875 21.425781 64.164062 21.621094 64.441406 C 21.816406 64.714844 22.035156 64.964844 22.277344 65.199219 C 22.523438 65.429688 22.785156 65.636719 23.070312 65.820312 C 23.351562 66 23.648438 66.152344 23.960938 66.277344 C 24.273438 66.402344 24.59375 66.496094 24.925781 66.558594 C 25.253906 66.625 25.589844 66.65625 25.925781 66.65625 L 48.3125 66.65625 C 48.648438 66.65625 48.980469 66.625 49.3125 66.558594 C 49.640625 66.496094 49.964844 66.402344 50.273438 66.277344 C 50.585938 66.152344 50.886719 66 51.167969 65.816406 C 51.449219 65.636719 51.714844 65.429688 51.957031 65.199219 C 52.199219 64.964844 52.421875 64.714844 52.613281 64.4375 C 52.808594 64.164062 52.976562 63.875 53.117188 63.570312 C 53.257812 63.265625 53.367188 62.949219 53.445312 62.621094 C 53.523438 62.292969 53.574219 61.964844 53.589844 61.628906 L 55.457031 22.980469 C 55.695312 23.023438 55.929688 23.042969 56.167969 23.035156 C 56.410156 23.027344 56.644531 22.992188 56.875 22.933594 C 57.105469 22.875 57.328125 22.789062 57.542969 22.683594 C 57.757812 22.574219 57.957031 22.445312 58.140625 22.296875 C 58.328125 22.144531 58.496094 21.976562 58.644531 21.789062 C 58.792969 21.601562 58.921875 21.402344 59.027344 21.1875 C 59.132812 20.972656 59.214844 20.75 59.269531 20.519531 C 59.328125 20.285156 59.359375 20.050781 59.367188 19.8125 L 59.367188 17.488281 C 59.367188 17.066406 59.285156 16.664062 59.125 16.277344 C 58.964844 15.886719 58.734375 15.546875 58.4375 15.25 C 58.140625 14.953125 57.800781 14.722656 57.410156 14.5625 C 57.023438 14.402344 56.621094 14.320312 56.199219 14.320312 Z M 28.121094 10.660156 C 28.121094 10.519531 28.148438 10.382812 28.203125 10.253906 C 28.257812 10.125 28.332031 10.011719 28.433594 9.914062 C 28.53125 9.8125 28.644531 9.738281 28.773438 9.683594 C 28.90625 9.628906 29.039062 9.601562 29.179688 9.601562 L 45.058594 9.601562 C 45.199219 9.601562 45.332031 9.628906 45.460938 9.683594 C 45.589844 9.738281 45.707031 9.8125 45.804688 9.914062 C 45.902344 10.011719 45.980469 10.125 46.035156 10.253906 C 46.085938 10.382812 46.113281 10.519531 46.113281 10.660156 L 46.113281 14.320312 L 28.121094 14.320312 Z M 51.476562 61.527344 C 51.457031 61.933594 51.363281 62.320312 51.195312 62.691406 C 51.027344 63.0625 50.792969 63.386719 50.5 63.667969 C 50.203125 63.949219 49.867188 64.164062 49.488281 64.316406 C 49.113281 64.464844 48.71875 64.542969 48.3125 64.542969 L 25.925781 64.542969 C 25.519531 64.542969 25.125 64.464844 24.746094 64.316406 C 24.371094 64.164062 24.03125 63.949219 23.738281 63.667969 C 23.441406 63.386719 23.210938 63.0625 23.042969 62.691406 C 22.875 62.320312 22.777344 61.933594 22.761719 61.523438 L 20.894531 22.980469 L 53.34375 22.980469 Z M 57.253906 19.8125 C 57.253906 19.953125 57.230469 20.085938 57.175781 20.214844 C 57.121094 20.347656 57.042969 20.460938 56.945312 20.558594 C 56.847656 20.660156 56.734375 20.734375 56.601562 20.789062 C 56.472656 20.84375 56.339844 20.867188 56.199219 20.867188 L 18.039062 20.867188 C 17.898438 20.867188 17.761719 20.84375 17.632812 20.789062 C 17.503906 20.734375 17.390625 20.660156 17.292969 20.558594 C 17.191406 20.460938 17.117188 20.347656 17.0625 20.214844 C 17.007812 20.085938 16.980469 19.953125 16.980469 19.8125 L 16.980469 17.488281 C 16.980469 17.347656 17.007812 17.214844 17.0625 17.085938 C 17.117188 16.953125 17.191406 16.839844 17.292969 16.742188 C 17.390625 16.640625 17.503906 16.566406 17.632812 16.511719 C 17.761719 16.457031 17.898438 16.433594 18.039062 16.433594 L 56.199219 16.433594 C 56.339844 16.433594 56.472656 16.457031 56.601562 16.511719 C 56.734375 16.566406 56.847656 16.640625 56.945312 16.742188 C 57.046875 16.839844 57.121094 16.953125 57.175781 17.085938 C 57.230469 17.214844 57.253906 17.347656 57.253906 17.488281 Z M 57.253906 19.8125 "/></g><path style=" stroke:none;fill-rule:nonzero;fill:#000000;fill-opacity:1;" d="M 37.117188 55.738281 C 37.257812 55.738281 37.394531 55.710938 37.523438 55.65625 C 37.652344 55.601562 37.765625 55.527344 37.867188 55.425781 C 37.964844 55.328125 38.042969 55.214844 38.09375 55.085938 C 38.148438 54.953125 38.175781 54.820312 38.175781 54.679688 L 38.175781 32.84375 C 38.175781 32.703125 38.148438 32.570312 38.09375 32.4375 C 38.042969 32.308594 37.964844 32.195312 37.867188 32.097656 C 37.765625 31.996094 37.652344 31.921875 37.523438 31.867188 C 37.394531 31.8125 37.257812 31.785156 37.117188 31.785156 C 36.976562 31.785156 36.84375 31.8125 36.714844 31.867188 C 36.585938 31.921875 36.46875 31.996094 36.371094 32.097656 C 36.273438 32.195312 36.195312 32.308594 36.140625 32.4375 C 36.089844 32.570312 36.0625 32.703125 36.0625 32.84375 L 36.0625 54.679688 C 36.0625 54.820312 36.089844 54.953125 36.140625 55.085938 C 36.195312 55.214844 36.273438 55.328125 36.371094 55.425781 C 36.46875 55.527344 36.585938 55.601562 36.714844 55.65625 C 36.84375 55.710938 36.976562 55.738281 37.117188 55.738281 Z M 37.117188 55.738281 "/><path style=" stroke:none;fill-rule:nonzero;fill:#000000;fill-opacity:1;" d="M 45.570312 55.738281 C 45.710938 55.738281 45.84375 55.710938 45.976562 55.65625 C 46.105469 55.601562 46.21875 55.527344 46.316406 55.425781 C 46.417969 55.328125 46.492188 55.214844 46.546875 55.085938 C 46.601562 54.953125 46.628906 54.820312 46.628906 54.679688 L 46.628906 32.84375 C 46.628906 32.703125 46.601562 32.570312 46.546875 32.4375 C 46.492188 32.308594 46.417969 32.195312 46.316406 32.097656 C 46.21875 31.996094 46.105469 31.921875 45.976562 31.867188 C 45.84375 31.8125 45.710938 31.785156 45.570312 31.785156 C 45.429688 31.785156 45.296875 31.8125 45.167969 31.867188 C 45.035156 31.921875 44.921875 31.996094 44.824219 32.097656 C 44.722656 32.195312 44.648438 32.308594 44.59375 32.4375 C 44.539062 32.570312 44.515625 32.703125 44.515625 32.84375 L 44.515625 54.679688 C 44.515625 54.820312 44.539062 54.953125 44.59375 55.085938 C 44.648438 55.214844 44.722656 55.328125 44.824219 55.425781 C 44.921875 55.527344 45.035156 55.601562 45.167969 55.65625 C 45.296875 55.710938 45.429688 55.738281 45.570312 55.738281 Z M 45.570312 55.738281 "/><path style=" stroke:none;fill-rule:nonzero;fill:#000000;fill-opacity:1;" d="M 28.667969 55.738281 C 28.808594 55.738281 28.941406 55.710938 29.070312 55.65625 C 29.199219 55.601562 29.316406 55.527344 29.414062 55.425781 C 29.511719 55.328125 29.589844 55.214844 29.644531 55.085938 C 29.695312 54.953125 29.722656 54.820312 29.722656 54.679688 L 29.722656 32.84375 C 29.722656 32.703125 29.695312 32.570312 29.644531 32.4375 C 29.589844 32.308594 29.511719 32.195312 29.414062 32.097656 C 29.316406 31.996094 29.199219 31.921875 29.070312 31.867188 C 28.941406 31.8125 28.808594 31.785156 28.667969 31.785156 C 28.527344 31.785156 28.390625 31.8125 28.261719 31.867188 C 28.132812 31.921875 28.019531 31.996094 27.917969 32.097656 C 27.820312 32.195312 27.742188 32.308594 27.691406 32.4375 C 27.636719 32.570312 27.609375 32.703125 27.609375 32.84375 L 27.609375 54.679688 C 27.609375 54.820312 27.636719 54.953125 27.691406 55.085938 C 27.742188 55.214844 27.820312 55.328125 27.917969 55.425781 C 28.019531 55.527344 28.132812 55.601562 28.261719 55.65625 C 28.390625 55.710938 28.527344 55.738281 28.667969 55.738281 Z M 28.667969 55.738281 "/></g></svg>