<?xml version="1.0" encoding="UTF-8" standalone="no"?>
<svg
   width="100"
   zoomAndPan="magnify"
   viewBox="0 0 75.119995 83.04"
   height="100"
   preserveAspectRatio="xMidYMid meet"
   version="1.2"
   id="svg2"
   sodipodi:docname="forward.svg"
   inkscape:version="1.4 (e7c3feb1, 2024-10-09)"
   xmlns:inkscape="http://www.inkscape.org/namespaces/inkscape"
   xmlns:sodipodi="http://sodipodi.sourceforge.net/DTD/sodipodi-0.dtd"
   xmlns="http://www.w3.org/2000/svg"
   xmlns:svg="http://www.w3.org/2000/svg">
  <sodipodi:namedview
     id="namedview2"
     pagecolor="#ffffff"
     bordercolor="#111111"
     borderopacity="1"
     inkscape:showpageshadow="0"
     inkscape:pageopacity="0"
     inkscape:pagecheckerboard="1"
     inkscape:deskcolor="#d1d1d1"
     inkscape:zoom="6.6330992"
     inkscape:cx="45.529245"
     inkscape:cy="50.956573"
     inkscape:window-width="1512"
     inkscape:window-height="915"
     inkscape:window-x="0"
     inkscape:window-y="38"
     inkscape:window-maximized="0"
     inkscape:current-layer="svg2" />
  <defs
     id="defs1">
    <clipPath
       id="70f97646b6">
      <path
         d="M 7.414062 16.476562 L 66.71875 16.476562 L 66.71875 57.992188 L 7.414062 57.992188 Z M 7.414062 16.476562 "
         id="path1" />
    </clipPath>
  </defs>
  <g
     id="9c71654532"
     transform="matrix(1.1604442,0,0,1.2369173,-5.4460151,-4.7256498)">
    <g
       clip-rule="nonzero"
       clip-path="url(#70f97646b6)"
       id="g2">
      <path
         style="fill-opacity:1;fill-rule:evenodd;stroke:none"
         d="m 61.570312,28.828125 c -3.191406,-2.929687 -6.398437,-6.101563 -9.609374,-9.628906 -0.53125,-0.582031 -0.5,-1.496094 0.07031,-2.039063 0.566406,-0.539062 1.460938,-0.507812 1.992188,0.07422 4.082031,4.488281 8.167968,8.390625 12.199218,11.941406 0.300782,0.265625 0.492188,0.65625 0.492188,1.09375 0,0.378907 -0.148438,0.726563 -0.382813,0.984375 -3.917969,4.273438 -8.34375,8.429688 -13.253906,13.277344 -0.558594,0.550781 -1.449219,0.535156 -1.988281,-0.03516 -0.542969,-0.574219 -0.527344,-1.484375 0.03125,-2.039063 3.9375,-3.890625 7.566406,-7.332031 10.867187,-10.75 H 14.535156 c -2.460937,0 -4.375,2.359375 -4.375,5.175781 0,0 0,13.222657 0,13.222657 0,2.8125 1.914063,5.171875 4.375,5.171875 h 15.253906 c 0.773438,0 1.40625,0.648437 1.40625,1.441406 0,0.796875 -0.632812,1.441406 -1.40625,1.441406 H 14.535156 c -3.925781,0 -7.195312,-3.566406 -7.195312,-8.054687 V 36.882812 c 0,-4.488281 3.269531,-8.054687 7.195312,-8.054687 z m 3.734376,2.878906 z m 0,0"
         id="path2" />
    </g>
  </g>
</svg>
