<svg xmlns="http://www.w3.org/2000/svg" xmlns:xlink="http://www.w3.org/1999/xlink" width="500" zoomAndPan="magnify" viewBox="0 0 375 374.999991" height="500" preserveAspectRatio="xMidYMid meet" version="1.2"><defs><clipPath id="5d0c8c0664"><path d="M 17.25 0 L 357.75 0 C 362.324219 0 366.710938 1.816406 369.949219 5.050781 C 373.183594 8.289062 375 12.675781 375 17.25 L 375 357.75 C 375 362.324219 373.183594 366.710938 369.949219 369.949219 C 366.710938 373.183594 362.324219 375 357.75 375 L 17.25 375 C 12.675781 375 8.289062 373.183594 5.050781 369.949219 C 1.816406 366.710938 0 362.324219 0 357.75 L 0 17.25 C 0 12.675781 1.816406 8.289062 5.050781 5.050781 C 8.289062 1.816406 12.675781 0 17.25 0 Z M 17.25 0 "/></clipPath></defs><g id="d6f46eec4e"><g clip-rule="nonzero" clip-path="url(#5d0c8c0664)"><rect x="0" width="375" y="0" height="374.999991" style="fill:#343434;fill-opacity:1;stroke:none;"/></g><g style="fill:#ffffff;fill-opacity:1;"><g transform="translate(47.149216, 247.910477)"><path style="stroke:none" d="M 48.078125 0 L 42.28125 0 L 42.28125 -133.359375 L 48.078125 -133.359375 Z M 36.484375 0 L 30.6875 0 L 30.6875 -133.359375 L 36.484375 -133.359375 Z M 24.890625 0 L 19.078125 0 L 19.078125 -133.359375 L 24.890625 -133.359375 Z M 13.28125 0 L 7.484375 0 L 7.484375 -133.359375 L 13.28125 -133.359375 Z M 90.4375 -66.671875 L 124.5 -133.359375 L 130.9375 -133.359375 L 96.875 -66.671875 L 130.9375 0 L 124.5 0 Z M 77.46875 -66.671875 L 111.53125 -133.359375 L 117.96875 -133.359375 L 83.90625 -66.671875 L 117.96875 0 L 111.53125 0 Z M 64.5 -66.671875 L 98.5625 -133.359375 L 105.015625 -133.359375 L 70.953125 -66.671875 L 105.015625 0 L 98.5625 0 Z M 51.453125 -66.671875 L 85.59375 -133.359375 L 92.046875 -133.359375 L 57.90625 -66.671875 L 92.046875 0 L 85.59375 0 Z M 51.453125 -66.671875 "/></g></g><g style="fill:#ffffff;fill-opacity:1;"><g transform="translate(181.699178, 247.910477)"><path style="stroke:none" d="M 42.28125 -34.78125 L 42.28125 -98.5625 C 42.28125 -98.5625 55.457031 -98.5625 81.8125 -98.5625 C 88.207031 -98.5625 93.695312 -95.429688 98.28125 -89.171875 C 102.875 -82.921875 105.171875 -75.421875 105.171875 -66.671875 C 105.171875 -57.867188 102.875 -50.351562 98.28125 -44.125 C 93.695312 -37.894531 88.207031 -34.78125 81.8125 -34.78125 Z M 48.078125 -40.59375 L 81.8125 -40.59375 C 86.59375 -40.59375 90.6875 -43.140625 94.09375 -48.234375 C 97.5 -53.335938 99.203125 -59.484375 99.203125 -66.671875 C 99.203125 -73.921875 97.5 -80.082031 94.09375 -85.15625 C 90.6875 -90.226562 86.59375 -92.765625 81.8125 -92.765625 L 48.078125 -92.765625 Z M 36.484375 -28.984375 L 81.8125 -28.984375 C 89.8125 -28.984375 96.695312 -32.675781 102.46875 -40.0625 C 108.238281 -47.445312 111.125 -56.316406 111.125 -66.671875 C 111.125 -73.492188 109.796875 -79.800781 107.140625 -85.59375 C 104.484375 -91.394531 100.910156 -95.972656 96.421875 -99.328125 C 91.941406 -102.679688 87.070312 -104.359375 81.8125 -104.359375 L 36.484375 -104.359375 Z M 30.6875 -23.1875 L 30.6875 -110.15625 L 81.8125 -110.15625 C 88.09375 -110.15625 93.941406 -108.222656 99.359375 -104.359375 C 104.785156 -100.492188 109.097656 -95.21875 112.296875 -88.53125 C 115.492188 -81.851562 117.09375 -74.566406 117.09375 -66.671875 C 117.09375 -58.835938 115.492188 -51.5625 112.296875 -44.84375 C 109.097656 -38.132812 104.785156 -32.847656 99.359375 -28.984375 C 93.941406 -25.117188 88.09375 -23.1875 81.8125 -23.1875 Z M 24.890625 -17.390625 L 81.8125 -17.390625 C 89.164062 -17.390625 95.992188 -19.585938 102.296875 -23.984375 C 108.609375 -28.390625 113.644531 -34.378906 117.40625 -41.953125 C 121.164062 -49.523438 123.046875 -57.765625 123.046875 -66.671875 C 123.046875 -75.535156 121.164062 -83.765625 117.40625 -91.359375 C 113.644531 -98.953125 108.597656 -104.945312 102.265625 -109.34375 C 95.929688 -113.75 89.113281 -115.953125 81.8125 -115.953125 L 24.890625 -115.953125 Z M 19.078125 -11.59375 L 19.078125 -121.765625 L 81.8125 -121.765625 C 90.1875 -121.765625 98 -119.304688 105.25 -114.390625 C 112.5 -109.472656 118.269531 -102.773438 122.5625 -94.296875 C 126.851562 -85.816406 129 -76.609375 129 -66.671875 C 129 -56.742188 126.851562 -47.535156 122.5625 -39.046875 C 118.269531 -30.566406 112.5 -23.867188 105.25 -18.953125 C 98 -14.046875 90.1875 -11.59375 81.8125 -11.59375 Z M 13.28125 -5.796875 L 81.8125 -5.796875 C 88.84375 -5.796875 95.632812 -7.40625 102.1875 -10.625 C 108.738281 -13.851562 114.398438 -18.175781 119.171875 -23.59375 C 123.953125 -29.019531 127.78125 -35.503906 130.65625 -43.046875 C 133.53125 -50.585938 134.96875 -58.460938 134.96875 -66.671875 C 134.96875 -74.890625 133.53125 -82.753906 130.65625 -90.265625 C 127.78125 -97.785156 123.953125 -104.269531 119.171875 -109.71875 C 114.398438 -115.164062 108.738281 -119.5 102.1875 -122.71875 C 95.632812 -125.945312 88.84375 -127.5625 81.8125 -127.5625 L 13.28125 -127.5625 Z M 81.8125 0 L 7.484375 0 L 7.484375 -133.359375 L 81.8125 -133.359375 C 92.28125 -133.359375 102.050781 -130.378906 111.125 -124.421875 C 120.195312 -118.460938 127.429688 -110.351562 132.828125 -100.09375 C 138.222656 -89.84375 140.921875 -78.703125 140.921875 -66.671875 C 140.921875 -57.660156 139.320312 -49.03125 136.125 -40.78125 C 132.9375 -32.539062 128.679688 -25.441406 123.359375 -19.484375 C 118.046875 -13.523438 111.753906 -8.785156 104.484375 -5.265625 C 97.210938 -1.753906 89.65625 0 81.8125 0 Z M 81.8125 0 "/></g></g></g></svg>