<?xml version="1.0" encoding="UTF-8" standalone="no"?>
<svg
   width="100"
   zoomAndPan="magnify"
   viewBox="0 0 75.119995 83.04"
   height="100"
   preserveAspectRatio="xMidYMid meet"
   version="1.2"
   id="svg8"
   sodipodi:docname="menu.svg"
   inkscape:version="1.4 (e7c3feb1, 2024-10-09)"
   xmlns:inkscape="http://www.inkscape.org/namespaces/inkscape"
   xmlns:sodipodi="http://sodipodi.sourceforge.net/DTD/sodipodi-0.dtd"
   xmlns="http://www.w3.org/2000/svg"
   xmlns:svg="http://www.w3.org/2000/svg">
  <sodipodi:namedview
     id="namedview8"
     pagecolor="#ffffff"
     bordercolor="#111111"
     borderopacity="1"
     inkscape:showpageshadow="0"
     inkscape:pageopacity="0"
     inkscape:pagecheckerboard="1"
     inkscape:deskcolor="#d1d1d1"
     inkscape:zoom="5.960191"
     inkscape:cx="49.830618"
     inkscape:cy="51.843976"
     inkscape:window-width="1512"
     inkscape:window-height="909"
     inkscape:window-x="0"
     inkscape:window-y="38"
     inkscape:window-maximized="0"
     inkscape:current-layer="svg8" />
  <defs
     id="defs4">
    <clipPath
       id="1d75b8bce8">
      <path
         d="M 7.414062 27 L 66.71875 27 L 66.71875 31 L 7.414062 31 Z M 7.414062 27 "
         id="path1" />
    </clipPath>
    <clipPath
       id="5f35c41a93">
      <path
         d="M 7.414062 12.054688 L 66.71875 12.054688 L 66.71875 15 L 7.414062 15 Z M 7.414062 12.054688 "
         id="path2" />
    </clipPath>
    <clipPath
       id="a4f1901a6d">
      <path
         d="M 7.414062 43 L 66.71875 43 L 66.71875 47 L 7.414062 47 Z M 7.414062 43 "
         id="path3" />
    </clipPath>
    <clipPath
       id="0f9ab1c8fd">
      <path
         d="M 7.414062 58 L 66.71875 58 L 66.71875 61.722656 L 7.414062 61.722656 Z M 7.414062 58 "
         id="path4" />
    </clipPath>
  </defs>
  <g
     id="f10161e5ac"
     transform="matrix(1.17402,0,0,1.2076112,-6.0333425,-3.3386348)">
    <g
       clip-rule="nonzero"
       clip-path="url(#1d75b8bce8)"
       id="g5">
      <path
         style="fill:#000000;fill-opacity:1;fill-rule:nonzero;stroke:none"
         d="m 65.246094,27.648438 c 0.382812,0 0.75,0.152343 1.023437,0.421874 0.273438,0.269532 0.425781,0.632813 0.425781,1.015626 0,0.378906 -0.152343,0.746093 -0.425781,1.015624 -0.273437,0.269532 -0.640625,0.421876 -1.023437,0.421876 H 8.898438 c -0.382813,0 -0.75,-0.152344 -1.023438,-0.421876 -0.269531,-0.269531 -0.425781,-0.636718 -0.425781,-1.015624 0,-0.382813 0.15625,-0.746094 0.425781,-1.015626 0.273438,-0.269531 0.640625,-0.421874 1.023438,-0.421874 z m 0,0"
         id="path5" />
    </g>
    <g
       clip-rule="nonzero"
       clip-path="url(#5f35c41a93)"
       id="g6">
      <path
         style="fill:#000000;fill-opacity:1;fill-rule:nonzero;stroke:none"
         d="m 65.246094,12.050781 c 0.382812,0 0.75,0.152344 1.023437,0.421875 0.273438,0.269532 0.425781,0.636719 0.425781,1.015625 0,0.382813 -0.152343,0.746094 -0.425781,1.019531 -0.273437,0.265626 -0.640625,0.417969 -1.023437,0.417969 H 8.898438 c -0.382813,0 -0.75,-0.152343 -1.023438,-0.417969 -0.269531,-0.273437 -0.425781,-0.636718 -0.425781,-1.019531 0,-0.378906 0.15625,-0.746093 0.425781,-1.015625 0.273438,-0.269531 0.640625,-0.421875 1.023438,-0.421875 z m 0,0"
         id="path6" />
    </g>
    <g
       clip-rule="nonzero"
       clip-path="url(#a4f1901a6d)"
       id="g7">
      <path
         style="fill:#000000;fill-opacity:1;fill-rule:nonzero;stroke:none"
         d="m 65.246094,43.246094 c 0.382812,0 0.75,0.148437 1.023437,0.417968 0.273438,0.269532 0.425781,0.636719 0.425781,1.019532 0,0.378906 -0.152343,0.746094 -0.425781,1.015625 -0.273437,0.269531 -0.640625,0.421875 -1.023437,0.421875 H 8.898438 c -0.382813,0 -0.75,-0.152344 -1.023438,-0.421875 C 7.605469,45.429688 7.449219,45.0625 7.449219,44.683594 c 0,-0.382813 0.15625,-0.75 0.425781,-1.019532 0.273438,-0.269531 0.640625,-0.417968 1.023438,-0.417968 z m 0,0"
         id="path7" />
    </g>
    <g
       clip-rule="nonzero"
       clip-path="url(#0f9ab1c8fd)"
       id="g8">
      <path
         style="fill:#000000;fill-opacity:1;fill-rule:nonzero;stroke:none"
         d="m 65.246094,58.839844 c 0.382812,0 0.75,0.152344 1.023437,0.421875 0.273438,0.269531 0.425781,0.636719 0.425781,1.015625 0,0.382812 -0.152343,0.746094 -0.425781,1.015625 -0.273437,0.269531 -0.640625,0.421875 -1.023437,0.421875 H 8.898438 c -0.382813,0 -0.75,-0.152344 -1.023438,-0.421875 -0.269531,-0.269531 -0.425781,-0.632813 -0.425781,-1.015625 0,-0.378906 0.15625,-0.746094 0.425781,-1.015625 0.273438,-0.269531 0.640625,-0.421875 1.023438,-0.421875 z m 0,0"
         id="path8" />
    </g>
  </g>
</svg>
