<?xml version="1.0" encoding="UTF-8" standalone="no"?>
<svg
   width="100"
   zoomAndPan="magnify"
   viewBox="0 0 75.119995 83.04"
   height="100"
   preserveAspectRatio="xMidYMid meet"
   version="1.2"
   id="svg2"
   sodipodi:docname="share.svg"
   inkscape:version="1.4 (e7c3feb1, 2024-10-09)"
   xmlns:inkscape="http://www.inkscape.org/namespaces/inkscape"
   xmlns:sodipodi="http://sodipodi.sourceforge.net/DTD/sodipodi-0.dtd"
   xmlns="http://www.w3.org/2000/svg"
   xmlns:svg="http://www.w3.org/2000/svg">
  <sodipodi:namedview
     id="namedview2"
     pagecolor="#ffffff"
     bordercolor="#111111"
     borderopacity="1"
     inkscape:showpageshadow="0"
     inkscape:pageopacity="0"
     inkscape:pagecheckerboard="1"
     inkscape:deskcolor="#d1d1d1"
     inkscape:zoom="5.9286142"
     inkscape:cx="51.445412"
     inkscape:cy="47.312911"
     inkscape:window-width="1512"
     inkscape:window-height="906"
     inkscape:window-x="0"
     inkscape:window-y="38"
     inkscape:window-maximized="0"
     inkscape:current-layer="g2" />
  <defs
     id="defs1">
    <clipPath
       id="f579f38918">
      <path
         d="M 17.710938 7.417969 L 56.257812 7.417969 L 56.257812 66.726562 L 17.710938 66.726562 Z M 17.710938 7.417969 "
         id="path1" />
    </clipPath>
  </defs>
  <g
     id="31f8bfad5d"
     transform="matrix(1.2108595,0,0,1.2267189,-7.2386501,-3.9228569)">
    <g
       clip-rule="nonzero"
       clip-path="url(#f579f38918)"
       id="g2">
      <path
         style="fill:current;fill-opacity:1;fill-rule:evenodd;stroke:none"
         d="M 49.828125,66.726562 H 24.144531 c -3.550781,0 -6.421875,-2.886718 -6.421875,-6.449218 V 37.070312 c 0,-3.558593 2.871094,-6.445312 6.421875,-6.445312 h 5.136719 c 0.707031,0 1.28125,0.578125 1.28125,1.289062 0,0.710938 -0.574219,1.289063 -1.28125,1.289063 h -5.136719 c -2.128906,0 -3.855469,1.734375 -3.855469,3.867187 v 23.207032 c 0,2.136718 1.726563,3.867187 3.855469,3.867187 h 25.683594 c 2.128906,0 3.851563,-1.730469 3.851563,-3.867187 V 37.070312 c 0,-2.132812 -1.722657,-3.867187 -3.851563,-3.867187 h -5.136719 c -0.710937,0 -1.285156,-0.578125 -1.285156,-1.289063 0,-0.710937 0.574219,-1.289062 1.285156,-1.289062 h 5.136719 C 53.375,30.625 56.25,33.511719 56.25,37.070312 v 23.207032 c 0,3.5625 -2.875,6.449218 -6.421875,6.449218 z m -3.425781,-46.78125 -8.132813,-8.167968 v 33.03125 c 0,0.710937 -0.574219,1.289062 -1.285156,1.289062 -0.710937,0 -1.285156,-0.578125 -1.285156,-1.289062 v -33.03125 l -8.132813,8.167968 c -0.488281,0.492188 -1.28125,0.492188 -1.773437,0 -0.488281,-0.492187 -0.488281,-1.289062 0,-1.78125 L 35.945312,7.972656 c 0.03906,-0.0625 0.06641,-0.128906 0.121094,-0.1875 0.25,-0.25 0.578125,-0.367187 0.90625,-0.363281 0.0039,0 0.0078,-0.00391 0.01172,-0.00391 0.0039,0 0.0078,0.00391 0.01172,0.00391 0.332031,-0.00391 0.65625,0.113281 0.90625,0.363281 0.05469,0.054688 0.07813,0.121094 0.117187,0.183594 l 10.15625,10.195312 c 0.492188,0.492188 0.492188,1.289063 0,1.78125 -0.488281,0.492188 -1.28125,0.492188 -1.773437,0 z m 0,0"
         id="path2" />
    </g>
  </g>
</svg>
