<?xml version="1.0" encoding="UTF-8" standalone="no"?>
<svg
   width="100"
   zoomAndPan="magnify"
   viewBox="0 0 75.119995 83.04"
   height="100"
   preserveAspectRatio="xMidYMid meet"
   version="1.2"
   id="svg4"
   sodipodi:docname="wishlist-added-trending.svg"
   inkscape:version="1.4 (e7c3feb1, 2024-10-09)"
   inkscape:export-filename="wishlist-added.svg"
   inkscape:export-xdpi="96"
   inkscape:export-ydpi="96"
   xmlns:inkscape="http://www.inkscape.org/namespaces/inkscape"
   xmlns:sodipodi="http://sodipodi.sourceforge.net/DTD/sodipodi-0.dtd"
   xmlns="http://www.w3.org/2000/svg"
   xmlns:svg="http://www.w3.org/2000/svg">
  <sodipodi:namedview
     id="namedview4"
     pagecolor="#ffffff"
     bordercolor="#111111"
     borderopacity="1"
     inkscape:showpageshadow="0"
     inkscape:pageopacity="0"
     inkscape:pagecheckerboard="1"
     inkscape:deskcolor="#d1d1d1"
     inkscape:zoom="5.0545907"
     inkscape:cx="55.790867"
     inkscape:cy="58.461707"
     inkscape:window-width="1496"
     inkscape:window-height="804"
     inkscape:window-x="0"
     inkscape:window-y="38"
     inkscape:window-maximized="0"
     inkscape:current-layer="g3"
     showgrid="false" />
  <defs
     id="defs2">
    <clipPath
       id="fef0fcf896">
      <path
         d="M 22.820312 23.003906 L 51.289062 23.003906 L 51.289062 46.132812 L 22.820312 46.132812 Z M 22.820312 23.003906 "
         id="path1" />
    </clipPath>
    <clipPath
       id="0ba39e8ff6">
      <path
         d="M 12.667969 7.417969 L 61.300781 7.417969 L 61.300781 66.726562 L 12.667969 66.726562 Z M 12.667969 7.417969 "
         id="path2" />
    </clipPath>
  </defs>
  <g
     id="12d87f7914"
     transform="matrix(1.2176491,0,0,1.1999801,-7.592041,-2.6334503)">
    <g
       clip-rule="nonzero"
       clip-path="url(#fef0fcf896)"
       id="g3">
      <path
         style="fill:current;fill-opacity:1;fill-rule:nonzero;stroke:none"
         d="m 43.390625,23.003906 c -2.679687,0 -5.042969,1.375 -6.421875,3.453125 -1.382812,-2.078125 -3.742188,-3.453125 -6.425781,-3.453125 -4.257813,0 -7.710938,3.453125 -7.710938,7.710938 0,7.671875 14.136719,15.417968 14.136719,15.417968 0,0 14.132812,-7.679687 14.132812,-15.417968 0,-4.257813 -3.453124,-7.710938 -7.710937,-7.710938"
         id="path3" />
    </g>
    <g
       clip-rule="nonzero"
       clip-path="url(#0ba39e8ff6)"
       id="g4">
      <path
         style="fill:current;fill-opacity:1;fill-rule:evenodd;stroke:none"
         d="M 61.363281,63.027344 V 11.9375 c 0,-1.210938 -0.492187,-2.371094 -1.335937,-3.226562 -0.867188,-0.859376 -2.039063,-1.339844 -3.253906,-1.339844 -8.625,0 -30.585938,0 -39.210938,0 -1.214844,0 -2.367188,0.480468 -3.230469,1.339844 -0.863281,0.855468 -1.339843,2.015624 -1.339843,3.226562 0,10.28125 0,40.097656 0,51.089844 0,1.234375 0.640624,2.382812 1.710937,3.023437 1.046875,0.644531 2.367187,0.6875 3.476563,0.117188 l 19,-9.816407 c 0,0 18.996093,9.816407 18.996093,9.816407 1.089844,0.570312 2.410157,0.527343 3.480469,-0.117188 1.046875,-0.640625 1.707031,-1.789062 1.707031,-3.023437 z m -2.058593,0 c 0,0.519531 -0.289063,1 -0.71875,1.269531 -0.453126,0.269531 -1.011719,0.289063 -1.460938,0.05078 0,0 -19.472656,-10.0625 -19.472656,-10.0625 -0.308594,-0.152344 -0.660156,-0.152344 -0.949219,0 l -19.46875,10.0625 c -0.472656,0.238282 -1.03125,0.21875 -1.460937,-0.05078 -0.453126,-0.269531 -0.722657,-0.75 -0.722657,-1.269531 0,0 0,-51.089844 0,-51.089844 0,-0.667969 0.269531,-1.304688 0.742188,-1.777344 C 16.265625,9.6875 16.90625,9.425781 17.5625,9.425781 c 8.625,0 30.585938,0 39.210938,0 0.679687,0 1.316406,0.261719 1.789062,0.734375 0.476562,0.472656 0.742188,1.109375 0.742188,1.777344 z M 50,36.839844 c 2.988281,-4.777344 2.265625,-10.492188 -1.027344,-13.207032 -3.417968,-2.84375 -8.769531,-2.496093 -11.734375,1.199219 -3.042969,-3.976562 -8.5,-4.097656 -11.9375,-1.191406 -3.683593,3.117187 -3.457031,8.828125 -1.128906,12.910156 3.992187,6.953125 12.617187,10.144531 12.617187,10.144531 0.246094,0.08984 0.511719,0.08594 0.761719,-0.01172 0,0 8.519531,-3.550782 12.449219,-9.84375 z m -1.746094,-1.085938 c -3.152344,5.039063 -9.511718,8.144532 -11.136718,8.867188 -1.605469,-0.664063 -7.988282,-3.570313 -11.15625,-9.089844 -1.875,-3.261719 -2.265626,-7.835938 0.679687,-10.332031 2.859375,-2.425781 7.613281,-2.03125 9.671875,2.003906 0.1875,0.34375 0.535156,0.5625 0.925781,0.5625 0.371094,0 0.742188,-0.214844 0.90625,-0.554687 1.957031,-3.765626 6.648438,-4.386719 9.511719,-2 2.613281,2.164062 2.984375,6.734374 0.597656,10.542968 z m 0,0"
         id="path4" />
    </g>
  </g>
</svg>
