<?xml version="1.0" encoding="UTF-8" standalone="no"?>
<svg
   width="100"
   zoomAndPan="magnify"
   viewBox="0 0 75.119995 83.04"
   height="100"
   preserveAspectRatio="xMidYMid meet"
   version="1.2"
   id="svg2"
   sodipodi:docname="wishlist-green.svg"
   inkscape:version="1.4 (e7c3feb1, 2024-10-09)"
   xmlns:inkscape="http://www.inkscape.org/namespaces/inkscape"
   xmlns:sodipodi="http://sodipodi.sourceforge.net/DTD/sodipodi-0.dtd"
   xmlns="http://www.w3.org/2000/svg"
   xmlns:svg="http://www.w3.org/2000/svg">
  <sodipodi:namedview
     id="namedview2"
     pagecolor="#ffffff"
     bordercolor="#111111"
     borderopacity="1"
     inkscape:showpageshadow="0"
     inkscape:pageopacity="0"
     inkscape:pagecheckerboard="1"
     inkscape:deskcolor="#d1d1d1"
     inkscape:zoom="6.3035707"
     inkscape:cx="53.937684"
     inkscape:cy="50.368278"
     inkscape:window-width="1512"
     inkscape:window-height="916"
     inkscape:window-x="0"
     inkscape:window-y="38"
     inkscape:window-maximized="0"
     inkscape:current-layer="svg2" />
  <defs
     id="defs1">
    <clipPath
       id="fe23987953">
      <path
         d="M 12.667969 7.417969 L 61.597656 7.417969 L 61.597656 66.726562 L 12.667969 66.726562 Z M 12.667969 7.417969 "
         id="path1" />
    </clipPath>
  </defs>
  <g
     id="49f2b7fc8e"
     transform="matrix(1.2575197,0,0,1.1742112,-9.0093374,-1.8192326)">
    <g
       clip-rule="nonzero"
       clip-path="url(#fe23987953)"
       id="g2">
      <path
         style="fill:#35af01;fill-opacity:1;fill-rule:evenodd;stroke:none"
         d="M 61.074219,62.871094 V 11.925781 c 0,-1.207031 -0.492188,-2.367187 -1.328125,-3.21875 -0.859375,-0.855469 -2.027344,-1.335937 -3.234375,-1.335937 -8.574219,0 -30.410157,0 -38.980469,0 -1.207031,0 -2.355469,0.480468 -3.214844,1.335937 -0.859375,0.851563 -1.328125,2.011719 -1.328125,3.21875 0,10.25 0,39.980469 0,50.945313 0,1.230468 0.632813,2.375 1.695313,3.015625 1.046875,0.640625 2.355468,0.683593 3.460937,0.117187 L 37.03125,56.214844 c 0,0 18.886719,9.789062 18.886719,9.789062 1.085937,0.566406 2.394531,0.523438 3.457031,-0.117187 1.042969,-0.640625 1.699219,-1.785157 1.699219,-3.015625 z m -2.046875,0 c 0,0.515625 -0.285156,0.996094 -0.714844,1.265625 -0.449219,0.269531 -1.003906,0.289062 -1.453125,0.05078 C 56.859375,64.1875 37.5,54.152344 37.5,54.152344 37.195312,54 36.847656,54 36.558594,54.152344 L 17.203125,64.1875 c -0.472656,0.238281 -1.023437,0.21875 -1.453125,-0.05078 -0.449219,-0.269531 -0.71875,-0.75 -0.71875,-1.265625 0,0 0,-50.945313 0,-50.945313 0,-0.664062 0.269531,-1.304687 0.738281,-1.773437 C 16.242188,9.683595 16.875,9.41797 17.53125,9.41797 c 8.570312,0 30.40625,0 38.980469,0 0.675781,0 1.308593,0.265625 1.78125,0.734375 0.46875,0.46875 0.734375,1.109375 0.734375,1.773437 z m -9.25,-26.113282 C 52.746094,31.992188 52.03125,26.292969 48.757812,23.585938 45.359375,20.753906 40.039062,21.097656 37.089844,24.785156 34.0625,20.820312 28.640625,20.695312 25.222656,23.59375 c -3.660156,3.109375 -3.4375,8.800781 -1.125,12.875 3.96875,6.933594 12.542969,10.117188 12.542969,10.117188 0.246094,0.08984 0.511719,0.08203 0.757813,-0.01563 0,0 8.472656,-3.539062 12.378906,-9.8125 z m -1.738282,-1.082031 c -3.128906,5.023438 -9.453124,8.117188 -11.070312,8.839844 -1.59375,-0.664063 -7.9375,-3.558594 -11.089844,-9.0625 -1.863281,-3.253906 -2.25,-7.816406 0.675782,-10.300781 2.84375,-2.421875 7.570312,-2.03125 9.617187,1.996094 0.183594,0.339843 0.53125,0.558593 0.917969,0.558593 0.371094,0 0.738281,-0.210937 0.902344,-0.554687 1.945312,-3.75 6.609374,-4.371094 9.453124,-1.992188 2.597657,2.15625 2.96875,6.714844 0.59375,10.515625 z m 0,0"
         id="path2" />
    </g>
  </g>
</svg>
