<?xml version="1.0" encoding="UTF-8" standalone="no"?>
<svg
   width="100"
   zoomAndPan="magnify"
   viewBox="0 0 75.119995 83.04"
   height="100"
   preserveAspectRatio="xMidYMid meet"
   version="1.2"
   id="svg2"
   sodipodi:docname="wishlist.svg"
   inkscape:version="1.4 (e7c3feb1, 2024-10-09)"
   xmlns:inkscape="http://www.inkscape.org/namespaces/inkscape"
   xmlns:sodipodi="http://sodipodi.sourceforge.net/DTD/sodipodi-0.dtd"
   xmlns="http://www.w3.org/2000/svg"
   xmlns:svg="http://www.w3.org/2000/svg">
  <sodipodi:namedview
     id="namedview2"
     pagecolor="#ffffff"
     bordercolor="#111111"
     borderopacity="1"
     inkscape:showpageshadow="0"
     inkscape:pageopacity="0"
     inkscape:pagecheckerboard="1"
     inkscape:deskcolor="#d1d1d1"
     inkscape:zoom="6.1102539"
     inkscape:cx="48.11584"
     inkscape:cy="47.133884"
     inkscape:window-width="1512"
     inkscape:window-height="887"
     inkscape:window-x="0"
     inkscape:window-y="38"
     inkscape:window-maximized="0"
     inkscape:current-layer="g2" />
  <defs
     id="defs1">
    <clipPath
       id="aced6270a1">
      <path
         d="M 12.667969 7.417969 L 61.597656 7.417969 L 61.597656 66.726562 L 12.667969 66.726562 Z M 12.667969 7.417969 "
         id="path1" />
    </clipPath>
  </defs>
  <g
     id="d859e1b87c"
     transform="matrix(1.2769721,0,0,1.1792155,-9.7130134,-1.7371233)">
    <g
       clip-rule="nonzero"
       clip-path="url(#aced6270a1)"
       id="g2">
      <path
         style="fill:current;fill-opacity:1;fill-rule:evenodd;stroke:none"
         d="M 61.074219,63.027344 V 11.9375 c 0,-1.210938 -0.492188,-2.371094 -1.328125,-3.226562 -0.859375,-0.859376 -2.027344,-1.339844 -3.234375,-1.339844 -8.574219,0 -30.410157,0 -38.980469,0 -1.207031,0 -2.355469,0.480468 -3.214844,1.339844 -0.859375,0.855468 -1.328125,2.015624 -1.328125,3.226562 0,10.28125 0,40.097656 0,51.089844 0,1.234375 0.632813,2.382812 1.695313,3.023437 1.046875,0.644531 2.355468,0.6875 3.460937,0.117188 L 37.03125,56.351562 c 0,0 18.886719,9.816407 18.886719,9.816407 1.085937,0.570312 2.394531,0.527343 3.457031,-0.117188 1.042969,-0.640625 1.699219,-1.789062 1.699219,-3.023437 z m -2.046875,0 c 0,0.519531 -0.285156,1 -0.714844,1.269531 -0.449219,0.269531 -1.003906,0.289063 -1.453125,0.05078 0,0 -19.359375,-10.0625 -19.359375,-10.0625 -0.304688,-0.152344 -0.652344,-0.152344 -0.941406,0 l -19.355469,10.0625 c -0.472656,0.238282 -1.023437,0.21875 -1.453125,-0.05078 -0.449219,-0.269531 -0.71875,-0.75 -0.71875,-1.269531 0,0 0,-51.089844 0,-51.089844 0,-0.667969 0.269531,-1.304688 0.738281,-1.777344 C 16.242188,9.6875 16.875,9.425781 17.53125,9.425781 c 8.570312,0 30.40625,0 38.980469,0 0.675781,0 1.308593,0.261719 1.78125,0.734375 0.46875,0.472656 0.734375,1.109375 0.734375,1.777344 z m -9.25,-26.1875 C 52.746094,32.0625 52.03125,26.347656 48.757812,23.632812 45.359375,20.789062 40.039062,21.136719 37.089844,24.832031 34.0625,20.855469 28.640625,20.734375 25.222656,23.640625 c -3.660156,3.117187 -3.4375,8.828125 -1.125,12.910156 3.96875,6.953125 12.542969,10.144531 12.542969,10.144531 0.246094,0.08984 0.511719,0.08594 0.757813,-0.01172 0,0 8.472656,-3.550782 12.378906,-9.84375 z m -1.738282,-1.085938 c -3.128906,5.039063 -9.453124,8.144532 -11.070312,8.867188 -1.59375,-0.664063 -7.9375,-3.570313 -11.089844,-9.089844 -1.863281,-3.261719 -2.25,-7.835938 0.675782,-10.332031 2.84375,-2.425781 7.570312,-2.03125 9.617187,2.003906 0.183594,0.34375 0.53125,0.5625 0.917969,0.5625 0.371094,0 0.738281,-0.214844 0.902344,-0.554687 1.945312,-3.765626 6.609374,-4.386719 9.453124,-2 2.597657,2.164062 2.96875,6.734374 0.59375,10.542968 z m 0,0"
         id="path2" />
    </g>
  </g>
</svg>
